<svg id="Capa_1" enable-background="new 0 0 512 512" height="512" viewBox="0 0 512 512" width="512" xmlns="http://www.w3.org/2000/svg"><g><path d="m191.75 398.5h-30c-4.142 0-7.5 3.358-7.5 7.5v30c0 4.142 3.358 7.5 7.5 7.5h30c4.142 0 7.5-3.358 7.5-7.5v-30c0-4.142-3.358-7.5-7.5-7.5zm-7.5 30h-15v-15h15z"/><path d="m131.75 34.515v-27.015c0-4.142-3.358-7.5-7.5-7.5h-45c-4.142 0-7.5 3.358-7.5 7.5v27.015c-41.508 12.833-71.75 51.568-71.75 97.235v139.878c0 30.402 10.893 59.861 30.672 82.949l33.578 39.196v57.227c0 4.142 3.358 7.5 7.5 7.5h7.5v46c0 4.142 3.358 7.5 7.5 7.5h30c4.142 0 7.5-3.358 7.5-7.5v-46h7.5c4.142 0 7.5-3.358 7.5-7.5v-57.227l33.578-39.196c19.779-23.088 30.672-52.547 30.672-82.949v-139.878c0-45.667-30.242-84.402-71.75-97.235zm-45-19.515h30v16.108c-4.897-.727-9.904-1.108-15-1.108s-10.103.381-15 1.108zm22.5 482h-15v-38.5h15zm-30-53.5v-45h45v45zm109.25-171.872c0 26.826-9.611 52.818-27.063 73.19l-33.138 38.682h-53.098l-33.137-38.682c-17.453-20.372-27.064-46.364-27.064-73.19v-139.878c0-47.834 38.916-86.75 86.75-86.75s86.75 38.916 86.75 86.75z"/><path d="m365.25 263.5c64.376 0 116.75-52.374 116.75-116.75s-52.374-116.75-116.75-116.75-116.75 52.374-116.75 116.75 52.374 116.75 116.75 116.75zm0-218.5c56.105 0 101.75 45.645 101.75 101.75s-45.645 101.75-101.75 101.75-101.75-45.645-101.75-101.75 45.645-101.75 101.75-101.75z"/><path d="m319.818 214.671c5.762 0 11.523-2.193 15.91-6.58 6.911-6.911 8.353-17.228 4.375-25.588l15.452-15.452c2.937 1.408 6.225 2.199 9.695 2.199 12.407 0 22.5-10.093 22.5-22.5 0-3.469-.79-6.757-2.199-9.695l41.04-41.04c2.929-2.929 2.929-7.678 0-10.606-2.929-2.929-7.678-2.929-10.606 0l-41.04 41.04c-2.937-1.408-6.225-2.199-9.695-2.199-12.407 0-22.5 10.093-22.5 22.5 0 3.469.79 6.757 2.199 9.695l-15.452 15.452c-8.36-3.978-18.677-2.536-25.588 4.375-8.773 8.772-8.773 23.047 0 31.819 4.386 4.387 10.148 6.58 15.909 6.58zm45.432-75.421c4.136 0 7.5 3.364 7.5 7.5s-3.364 7.5-7.5 7.5-7.5-3.364-7.5-7.5 3.364-7.5 7.5-7.5zm-50.735 47.628c1.417-1.417 3.3-2.197 5.303-2.197s3.887.78 5.303 2.197 2.197 3.3 2.197 5.303-.78 3.887-2.197 5.303-3.3 2.197-5.303 2.197-3.887-.78-5.303-2.197-2.197-3.3-2.197-5.303.781-3.886 2.197-5.303z"/><path d="m462.75 324.79v-68.465c30.196-26.898 49.25-66.05 49.25-109.575 0-80.918-65.832-146.75-146.75-146.75s-146.75 65.832-146.75 146.75c0 43.525 19.054 82.677 49.25 109.576v68.46c-8.73 3.095-15 11.437-15 21.215 0 12.407 10.093 22.5 22.5 22.5h52.5v22.499c0 4.142 3.358 7.5 7.5 7.5h7.5v106c0 4.142 3.358 7.5 7.5 7.5h30c4.142 0 7.5-3.358 7.5-7.5v-106h7.5c4.142 0 7.5-3.358 7.5-7.5v-22.5h52.5c12.407 0 22.5-10.093 22.5-22.5 0-9.778-6.271-18.114-15-21.21zm-229.25-178.04c0-72.647 59.103-131.75 131.75-131.75s131.75 59.103 131.75 131.75-59.103 131.75-131.75 131.75-131.75-59.103-131.75-131.75zm139.25 350.25h-15v-98.5h15zm15-113.5h-45v-15h45zm67.5-30h-180c-4.136 0-7.5-3.364-7.5-7.5s3.364-7.5 7.5-7.5c4.142 0 7.5-3.358 7.5-7.5v-62.949c23.525 16.051 51.935 25.449 82.5 25.449s58.975-9.398 82.5-25.449v55.449h-142.5c-4.142 0-7.5 3.358-7.5 7.5s3.358 7.5 7.5 7.5h150c4.136 0 7.5 3.364 7.5 7.5s-3.364 7.5-7.5 7.5z"/></g></svg>