<svg id="Capa_1" enable-background="new 0 0 512 512" height="512" viewBox="0 0 512 512" width="512" xmlns="http://www.w3.org/2000/svg"><g><path d="m474.5 90h-52.5v-52.5c0-20.678-16.822-37.5-37.5-37.5h-257c-20.678 0-37.5 16.822-37.5 37.5v60c0 4.142 3.357 7.5 7.5 7.5h377c12.406 0 22.5 10.093 22.5 22.5v317c0 12.407-10.094 22.5-22.5 22.5h-437c-12.406 0-22.5-10.093-22.5-22.5v-317c0-12.407 10.094-22.5 22.5-22.5h30c4.143 0 7.5-3.358 7.5-7.5s-3.357-7.5-7.5-7.5h-30c-20.678 0-37.5 16.822-37.5 37.5v317c0 18.11 12.904 33.261 30 36.745v23.255c0 4.142 3.357 7.5 7.5 7.5h437c4.143 0 7.5-3.358 7.5-7.5v-23.255c17.096-3.484 30-18.635 30-36.745v-317c0-20.678-16.822-37.5-37.5-37.5zm-97.5-45h-242v-30h242zm-242 15h242v30h-242zm-30-22.5c0-9.777 6.271-18.114 15-21.21v73.71h-15zm302 52.5h-15v-73.71c8.729 3.096 15 11.432 15 21.21zm-362 407v-15h422v15z"/><path d="m452 157.5c0-4.142-3.357-7.5-7.5-7.5h-377c-4.143 0-7.5 3.358-7.5 7.5v227c0 4.142 3.357 7.5 7.5 7.5h377c4.143 0 7.5-3.358 7.5-7.5zm-15 174.5h-173.5v-167h173.5zm-188.5-167v167h-173.5v-167zm-173.5 212v-30h362v30z"/><path d="m60 429.5c0 12.407 10.094 22.5 22.5 22.5s22.5-10.093 22.5-22.5-10.094-22.5-22.5-22.5-22.5 10.093-22.5 22.5zm30 0c0 4.136-3.364 7.5-7.5 7.5s-7.5-3.364-7.5-7.5 3.364-7.5 7.5-7.5 7.5 3.364 7.5 7.5z"/><path d="m120 429.5c0 12.407 10.094 22.5 22.5 22.5s22.5-10.093 22.5-22.5-10.094-22.5-22.5-22.5-22.5 10.093-22.5 22.5zm30 0c0 4.136-3.364 7.5-7.5 7.5s-7.5-3.364-7.5-7.5 3.364-7.5 7.5-7.5 7.5 3.364 7.5 7.5z"/><path d="m180 429.5c0 12.407 10.094 22.5 22.5 22.5s22.5-10.093 22.5-22.5-10.094-22.5-22.5-22.5-22.5 10.093-22.5 22.5zm30 0c0 4.136-3.364 7.5-7.5 7.5s-7.5-3.364-7.5-7.5 3.364-7.5 7.5-7.5 7.5 3.364 7.5 7.5z"/><path d="m429.5 407c-12.406 0-22.5 10.093-22.5 22.5s10.094 22.5 22.5 22.5 22.5-10.093 22.5-22.5-10.094-22.5-22.5-22.5zm0 30c-4.136 0-7.5-3.364-7.5-7.5s3.364-7.5 7.5-7.5 7.5 3.364 7.5 7.5-3.364 7.5-7.5 7.5z"/><path d="m97.5 256h30c3.361 0 6.313-2.236 7.221-5.473l9.904-35.279 27.029 96.279c.908 3.236 3.859 5.473 7.221 5.473s6.313-2.236 7.221-5.473l15.589-55.527h24.315c4.143 0 7.5-3.358 7.5-7.5s-3.357-7.5-7.5-7.5h-30c-3.361 0-6.313 2.236-7.221 5.473l-9.904 35.279-27.029-96.279c-.908-3.236-3.859-5.473-7.221-5.473s-6.313 2.236-7.221 5.473l-15.589 55.527h-24.315c-4.143 0-7.5 3.358-7.5 7.5s3.357 7.5 7.5 7.5z"/><path d="m285.637 256.317 56.447 58.383c1.413 1.461 3.358 2.287 5.392 2.287s3.979-.825 5.392-2.287l56.439-58.375c8.185-8.44 12.693-19.565 12.693-31.325 0-24.813-20.187-45-45-45-11.018 0-21.407 3.945-29.524 11.037-8.12-7.091-18.508-11.037-29.526-11.037-24.813 0-45 20.187-45 45 0 11.761 4.509 22.886 12.687 31.317zm32.313-61.317c9.273 0 17.884 4.199 23.622 11.521 1.422 1.814 3.599 2.874 5.903 2.874s4.481-1.06 5.903-2.874c5.738-7.322 14.348-11.521 23.622-11.521 16.542 0 30 13.458 30 30 0 7.84-3.005 15.256-8.469 20.891l-51.056 52.806-51.063-52.814c-5.457-5.626-8.462-13.042-8.462-20.882 0-16.543 13.458-30.001 30-30.001z"/></g></svg>