<svg id="Capa_1" enable-background="new 0 0 512 512" height="512" viewBox="0 0 512 512" width="512" xmlns="http://www.w3.org/2000/svg"><g><circle cx="37.5" cy="127.5" r="7.5"/><circle cx="474.5" cy="127.5" r="7.5"/><path d="m481.76 90.712c-3.498-50.607-45.781-90.712-97.26-90.712h-257c-51.479 0-93.762 40.105-97.26 90.712-17.214 3.391-30.24 18.594-30.24 36.788v257c0 70.304 57.196 127.5 127.5 127.5h257c70.304 0 127.5-57.196 127.5-127.5v-257c0-18.194-13.026-33.397-30.24-36.788zm-354.26-75.712h257c42.961 0 78.34 33.013 82.144 75h-15.07c-3.744-33.702-32.389-60-67.073-60h-257c-34.684 0-63.329 26.298-67.073 60h-15.07c3.802-41.987 39.181-75 82.142-75zm-30 60h317c9.777 0 18.114 6.271 21.21 15h-359.42c3.096-8.729 11.433-15 21.21-15zm-7.439-14.256c9.533-9.708 22.792-15.744 37.439-15.744h257c14.647 0 27.906 6.036 37.438 15.744-2.405-.486-4.892-.744-7.438-.744h-317c-2.546 0-5.033.258-7.439.744zm-52.561 44.256h437c12.406 0 22.5 10.094 22.5 22.5v22.5h-482v-22.5c0-12.406 10.094-22.5 22.5-22.5zm90 392c-62.033 0-112.5-50.467-112.5-112.5v-219.5h45v189.5c0 4.143 3.357 7.5 7.5 7.5s7.5-3.357 7.5-7.5v-189.5h362v219.5c0 62.032-50.468 112.5-112.5 112.5h-137c-62.032 0-112.5-50.468-112.5-112.5 0-4.143-3.357-7.5-7.5-7.5s-7.5 3.357-7.5 7.5c0 48.647 27.39 91.012 67.554 112.5zm257 0h-.054c40.164-21.488 67.554-63.853 67.554-112.5v-219.5h45v219.5c0 62.033-50.467 112.5-112.5 112.5z"/></g></svg>