<svg id="Capa_1" enable-background="new 0 0 512 512" height="512" viewBox="0 0 512 512" width="512" xmlns="http://www.w3.org/2000/svg"><g><path d="m395.25 0c-16.542 0-30 13.458-30 30s13.458 30 30 30h15c31.292 0 56.75 25.458 56.75 56.75 0 1.532-.075 3.147-.23 4.938l-13.513 156.204c-24.536-18.447-55.017-29.392-88.008-29.392h-218.5c-32.991 0-63.471 10.945-88.008 29.392l-13.511-156.204c-.155-1.791-.23-3.406-.23-4.938 0-31.292 25.458-56.75 56.75-56.75h15c16.542 0 30-13.458 30-30s-13.458-30-30-30c-64.376 0-116.75 52.374-116.75 116.75v278.5c0 64.376 52.374 116.75 116.75 116.75 37.409 0 72.827-18.14 94.742-48.522l26.252-36.37c4.229-5.859 11.053-9.357 18.256-9.357s14.027 3.498 18.256 9.358l26.25 36.366c21.916 30.384 57.334 48.525 94.744 48.525 64.376 0 116.75-52.374 116.75-116.75v-278.5c0-64.376-52.374-116.75-116.75-116.75zm-380.25 116.75c0-56.105 45.645-101.75 101.75-101.75 8.271 0 15 6.729 15 15s-6.729 15-15 15h-15c-39.563 0-71.75 32.187-71.75 71.75 0 1.968.093 4.006.286 6.23l14.438 166.897c-12.108 11.727-22.205 25.513-29.724 40.789zm380.25 380.25c-32.604 0-63.474-15.813-82.58-42.303l-26.251-36.367c-7.04-9.756-18.412-15.58-30.419-15.58s-23.379 5.824-30.418 15.579l-26.254 36.371c-19.105 26.487-49.976 42.3-82.578 42.3-56.105 0-101.75-45.645-101.75-101.75 0-72.647 59.103-131.75 131.75-131.75h218.5c72.647 0 131.75 59.103 131.75 131.75 0 56.105-45.645 101.75-101.75 101.75zm72.027-207.122 14.438-166.898c.192-2.224.286-4.262.286-6.229-.001-39.564-32.188-71.751-71.751-71.751h-15c-8.271 0-15-6.729-15-15s6.729-15 15-15c56.105 0 101.75 45.645 101.75 101.75v213.916c-7.519-15.276-17.616-29.062-29.723-40.788z"/><path d="m365.25 278.5h-218.5c-64.376 0-116.75 52.374-116.75 116.75 0 17.412 5.164 34.221 14.934 48.611 2.327 3.427 6.991 4.318 10.418 1.992s4.319-6.991 1.992-10.418c-8.075-11.894-12.344-25.789-12.344-40.185 0-56.105 45.645-101.75 101.75-101.75h218.5c56.105 0 101.75 45.645 101.75 101.75 0 39.563-32.187 71.75-71.75 71.75-22.991 0-44.766-11.159-58.249-29.853l-26.257-36.376c-12.661-17.545-33.127-28.021-54.744-28.021s-42.083 10.477-54.746 28.023l-26.252 36.368c-13.485 18.697-35.261 29.859-58.252 29.859-14.395 0-28.291-4.269-40.186-12.344-3.427-2.327-8.091-1.435-10.418 1.992-2.327 3.428-1.435 8.092 1.993 10.418 14.39 9.77 31.2 14.934 48.611 14.934 27.797 0 54.121-13.489 70.417-36.081l26.25-36.367c9.852-13.652 25.771-21.802 42.583-21.802s32.73 8.149 42.581 21.8l26.256 36.375c16.293 22.589 42.616 36.075 70.413 36.075 47.834 0 86.75-38.916 86.75-86.75 0-64.376-52.374-116.75-116.75-116.75z"/></g></svg>