<svg id="Capa_1" enable-background="new 0 0 512 512" height="512" viewBox="0 0 512 512" width="512" xmlns="http://www.w3.org/2000/svg"><g><path d="m336.875 278.924v-62.236c0-4.143-3.357-7.5-7.5-7.5s-7.5 3.357-7.5 7.5v69.312c0 4.143 3.357 7.5 7.5 7.5 28.053 0 50.875 22.822 50.875 50.875 0 4.143 3.357 7.5 7.5 7.5s7.5-3.357 7.5-7.5c0-33.787-25.57-61.716-58.375-65.451z"/><path d="m475.313 90c-8.109 0-15.608 2.649-21.688 7.121v-30.433c0-20.229-16.458-36.688-36.688-36.688-8.109 0-15.608 2.649-21.688 7.121v-.433c.001-20.23-16.457-36.688-36.686-36.688s-36.688 16.458-36.688 36.688v.433c-6.08-4.472-13.579-7.121-21.687-7.121-20.23 0-36.688 16.458-36.688 36.688v261.062c0 29.798 10.632 58.431 30 80.959v95.791c0 4.143 3.357 7.5 7.5 7.5h173.5c4.143 0 7.5-3.357 7.5-7.5v-95.791c19.368-22.527 30-51.16 30-80.959v-201.062c0-20.23-16.458-36.688-36.687-36.688zm-175.125-45c11.959 0 21.688 9.729 21.688 21.688v90.426c-6.079-4.47-13.58-7.113-21.688-7.113-8.109 0-15.608 2.649-21.688 7.121v-90.434c0-11.959 9.729-21.688 21.688-21.688zm196.812 282.75c0 27.058-9.969 53.021-28.071 73.108-1.241 1.377-1.929 3.166-1.929 5.021v91.121h-158.5v-91.121c0-1.854-.688-3.644-1.929-5.021-18.101-20.087-28.071-46.051-28.071-73.108v-141.062c0-11.959 9.729-21.688 21.688-21.688s21.688 9.729 21.688 21.688c0 4.143 3.357 7.5 7.5 7.5s7.5-3.357 7.5-7.5v-150c0-11.959 9.729-21.688 21.688-21.688s21.688 9.729 21.688 21.688v189.312c0 4.143 3.357 7.5 7.5 7.5s7.5-3.357 7.5-7.5v-159.312c0-11.959 9.729-21.688 21.688-21.688s21.688 9.729 21.688 21.688v159.312c0 4.143 3.357 7.5 7.5 7.5s7.5-3.357 7.5-7.5v-99.313c0-11.959 9.729-21.688 21.688-21.688s21.684 9.73 21.684 21.689z"/><path d="m211.813 90c-8.109 0-15.608 2.649-21.688 7.121v-30.433c0-20.229-16.458-36.688-36.688-36.688-8.109 0-15.608 2.649-21.688 7.121v-.433c.001-20.23-16.457-36.688-36.686-36.688s-36.688 16.458-36.688 36.688v.433c-6.08-4.472-13.579-7.121-21.687-7.121-20.23 0-36.688 16.458-36.688 36.688v261.062c0 29.798 10.632 58.431 30 80.959v95.791c0 4.143 3.357 7.5 7.5 7.5h173.5c4.143 0 7.5-3.357 7.5-7.5v-95.791c19.368-22.527 30-51.16 30-80.959v-201.062c0-20.23-16.458-36.688-36.687-36.688zm21.687 237.75c0 27.058-9.969 53.021-28.071 73.108-1.241 1.377-1.929 3.166-1.929 5.021v91.121h-158.5v-91.121c0-1.854-.688-3.644-1.929-5.021-18.101-20.087-28.071-46.051-28.071-73.108v-261.062c0-11.959 9.729-21.688 21.688-21.688s21.688 9.729 21.688 21.688v159.312c0 4.143 3.357 7.5 7.5 7.5s7.5-3.357 7.5-7.5v-189.312c-.001-11.959 9.728-21.688 21.687-21.688s21.688 9.729 21.688 21.688v189.312c0 4.143 3.357 7.5 7.5 7.5s7.5-3.357 7.5-7.5v-159.312c0-11.959 9.729-21.688 21.688-21.688s21.688 9.729 21.688 21.688v159.312c0 4.143 3.357 7.5 7.5 7.5s7.5-3.357 7.5-7.5v-99.313c0-11.959 9.729-21.688 21.688-21.688s21.688 9.729 21.688 21.688v201.063z"/></g></svg>