<svg id="Capa_1" enable-background="new 0 0 512 512" height="512" viewBox="0 0 512 512" width="512" xmlns="http://www.w3.org/2000/svg"><g><path d="m465.899 70.667-93.5-60c-10.875-6.979-23.461-10.667-36.399-10.667h-160c-12.933 0-25.518 3.688-36.393 10.663l-93.5 60c-19.478 12.495-31.107 33.743-31.107 56.837v98.5c0 20.678 16.822 37.5 37.5 37.5s37.5-16.822 37.5-37.5v-76.587l30-19.251v50.838c0 16.676 6.193 32.687 17.209 45-11.016 12.313-17.209 28.324-17.209 45 0 4.143 3.358 7.5 7.5 7.5s7.5-3.357 7.5-7.5c0-15.047 6.486-29.399 17.796-39.376 1.614-1.423 2.539-3.472 2.539-5.624s-.925-4.201-2.539-5.624c-11.31-9.977-17.796-24.329-17.796-39.376v-64.563c0-2.742-1.497-5.267-3.903-6.581-2.408-1.316-5.339-1.211-7.647.269l-33.45 21.464v-71.27l57.707-37.031c8.453-5.422 18.236-8.288 28.293-8.288h12.927c3.47 31.238 28.336 56.103 59.573 59.573v233.927h-15c-4.142 0-7.5 3.357-7.5 7.5v135.5c0 25.089-20.411 45.5-45.5 45.5s-45.5-20.411-45.5-45.5v-150.5c0-4.143-3.358-7.5-7.5-7.5s-7.5 3.357-7.5 7.5v150.5c0 33.359 27.14 60.5 60.5 60.5s60.5-27.141 60.5-60.5v-128h30v128c0 33.359 27.141 60.5 60.5 60.5s60.5-27.141 60.5-60.5v-180.5c0-16.677-6.193-32.687-17.209-45 11.016-12.313 17.209-28.323 17.209-45v-50.839l30 19.251v76.588c0 20.678 16.822 37.5 37.5 37.5s37.5-16.822 37.5-37.5v-98.5c0-23.092-11.627-44.338-31.101-56.833zm-390.899 155.333c0 12.406-10.093 22.5-22.5 22.5s-22.5-10.094-22.5-22.5v-98.5c0-17.961 9.049-34.488 24.208-44.212l20.792-13.343zm129.044-211h103.911c-3.651 25.407-25.554 45-51.955 45-26.402 0-48.304-19.593-51.956-45zm184.507 95.124c-2.31-1.479-5.241-1.585-7.647-.269-2.406 1.314-3.903 3.839-3.903 6.581v64.564c0 15.048-6.486 29.399-17.796 39.375-1.614 1.424-2.539 3.473-2.539 5.625s.925 4.201 2.539 5.625c11.309 9.976 17.795 24.327 17.795 39.375v180.5c0 25.089-20.411 45.5-45.5 45.5s-45.5-20.411-45.5-45.5v-135.5c0-4.143-3.357-7.5-7.5-7.5h-15v-233.927c31.237-3.47 56.103-28.336 59.573-59.573h12.927c10.06 0 19.846 2.867 28.298 8.292l57.702 37.027v71.27zm93.449 115.876c0 12.406-10.094 22.5-22.5 22.5s-22.5-10.094-22.5-22.5v-156.055l20.799 13.347c15.154 9.724 24.201 26.25 24.201 44.208z"/></g></svg>