<svg id="Capa_1" enable-background="new 0 0 512 512" height="512" viewBox="0 0 512 512" width="512" xmlns="http://www.w3.org/2000/svg"><g><path d="m465.899 100.667-93.5-60c-10.875-6.979-23.461-10.667-36.399-10.667h-8.75l-20.25-27c-1.417-1.889-3.639-3-6-3h-90c-2.361 0-4.583 1.111-6 3l-20.25 27h-8.75c-12.934 0-25.518 3.688-36.394 10.663l-93.499 60c-19.478 12.495-31.107 33.742-31.107 56.837v128.5c0 4.143 3.358 7.5 7.5 7.5h60c4.142 0 7.5-3.357 7.5-7.5v-106.587l30-19.251v65.838c0 4.143 3.358 7.5 7.5 7.5s7.5-3.357 7.5-7.5v-79.563c0-2.742-1.497-5.267-3.903-6.581-2.407-1.315-5.339-1.211-7.647.269l-33.45 21.464v-71.27l57.707-37.031c7.736-4.962 16.586-7.776 25.741-8.219l-13.448 17.931c-1.334 1.779-1.811 4.059-1.299 6.224.511 2.164 1.956 3.99 3.945 4.984l23.292 11.646-11.646 23.291c-1.333 2.666-.961 5.867.946 8.156l73.262 87.914v291.785h-113.5v-105h52.5c4.142 0 7.5-3.357 7.5-7.5v-128.5c0-4.143-3.358-7.5-7.5-7.5h-60c-4.142 0-7.5 3.357-7.5 7.5v248.5c0 4.143 3.358 7.5 7.5 7.5h257c4.142 0 7.5-3.357 7.5-7.5v-344.339l30 19.251v106.588c0 4.143 3.358 7.5 7.5 7.5h60c4.142 0 7.5-3.357 7.5-7.5v-128.5c0-23.092-11.626-44.338-31.101-56.833zm-390.899 177.833h-45v-121c0-17.961 9.049-34.488 24.208-44.212l20.792-13.343zm60 98.5v-83.5h45v83.5zm45-113.5v15h-45v-15zm129.292-177.646 12.806 25.612-51.714 62.056 34.296-148.615 29.928 39.904-21.962 10.981c-3.705 1.853-5.207 6.357-3.354 10.062zm-88.864-70.854h71.144l-35.572 154.146zm-21.074 60.792-21.962-10.981 29.928-39.904 34.296 148.616-51.714-62.056 12.806-25.612c1.853-3.706.351-8.21-3.354-10.063zm132.646 217.708h45v83.5h-45zm0-15v-15h45v15zm56.551-138.376c-2.308-1.48-5.24-1.584-7.647-.269-2.406 1.314-3.903 3.839-3.903 6.581v102.064h-52.5c-4.142 0-7.5 3.357-7.5 7.5v128.5c0 4.143 3.358 7.5 7.5 7.5h52.499v105h-113.5v-291.784l73.262-87.914c1.908-2.289 2.279-5.49.946-8.156l-11.646-23.291 23.292-11.646c1.989-.994 3.435-2.82 3.945-4.984.511-2.165.035-4.444-1.299-6.224l-13.448-17.931c9.157.443 18.01 3.258 25.746 8.223l57.702 37.026v71.27zm93.449 138.376h-45v-178.555l20.798 13.347c15.155 9.723 24.202 26.249 24.202 44.208z"/></g></svg>