<svg id="Capa_1" enable-background="new 0 0 512 512" height="512" viewBox="0 0 512 512" width="512" xmlns="http://www.w3.org/2000/svg"><g><path d="m465.899 100.667-93.5-60c-10.875-6.979-23.461-10.667-36.399-10.667h-21.29c.833-2.347 1.29-4.871 1.29-7.5 0-12.406-10.093-22.5-22.5-22.5-5.807 0-11.325 2.217-15.526 6.232l-21.974 20.914-21.962-20.903c-4.213-4.026-9.731-6.243-15.538-6.243-12.407 0-22.5 10.094-22.5 22.5 0 2.629.458 5.153 1.29 7.5h-21.29c-12.934 0-25.518 3.688-36.393 10.663l-93.5 60c-19.478 12.495-31.107 33.743-31.107 56.837v98.5c0 20.678 16.822 37.5 37.5 37.5s37.5-16.822 37.5-37.5v-76.587l30-19.251v65.838c0 4.143 3.358 7.5 7.5 7.5s7.5-3.357 7.5-7.5v-79.563c0-2.742-1.497-5.267-3.903-6.581-2.407-1.315-5.339-1.211-7.647.269l-33.45 21.464v-71.27l57.707-37.031c8.453-5.422 18.236-8.288 28.293-8.288h12.927c3.744 33.702 32.39 60 67.073 60s63.329-26.298 67.073-60h12.927c10.06 0 19.845 2.867 28.298 8.292l57.702 37.027v71.27l-33.449-21.465c-2.308-1.48-5.24-1.584-7.647-.269-2.406 1.314-3.903 3.839-3.903 6.581v350.564h-242.001v-241c0-4.143-3.358-7.5-7.5-7.5s-7.5 3.357-7.5 7.5v248.5c0 4.143 3.358 7.5 7.5 7.5h257c4.142 0 7.5-3.357 7.5-7.5v-344.339l30 19.251v76.588c0 20.678 16.822 37.5 37.5 37.5s37.5-16.822 37.5-37.5v-98.5c0-23.092-11.626-44.338-31.101-56.833zm-390.899 155.333c0 12.406-10.093 22.5-22.5 22.5s-22.5-10.094-22.5-22.5v-98.5c0-17.961 9.049-34.488 24.208-44.212l20.792-13.343zm213.327-238.913c1.407-1.346 3.245-2.087 5.173-2.087 4.136 0 7.5 3.364 7.5 7.5s-3.364 7.5-7.5 7.5h-18.741zm-77.327 5.413c0-4.136 3.364-7.5 7.5-7.5 1.928 0 3.766.741 5.185 2.098l13.556 12.902h-18.741c-4.136 0-7.5-3.364-7.5-7.5zm45 67.5c-26.402 0-48.304-19.593-51.956-45h103.911c-3.651 25.407-25.553 45-51.955 45zm226 166c0 12.406-10.093 22.5-22.5 22.5s-22.5-10.094-22.5-22.5v-156.055l20.798 13.347c15.155 9.723 24.202 26.249 24.202 44.208z"/></g></svg>