<svg id="Capa_1" enable-background="new 0 0 512 512" height="512" viewBox="0 0 512 512" width="512" xmlns="http://www.w3.org/2000/svg"><g><path d="m478.971 210.326-52.281-103.5c-9.916-19.631-29.738-31.826-51.732-31.826-31.958 0-57.958 26-57.958 57.958v2.042h-16c-4.136 0-7.5-3.364-7.5-7.5v-120c0-4.142-3.358-7.5-7.5-7.5h-60c-4.142 0-7.5 3.358-7.5 7.5v120c0 4.136-3.364 7.5-7.5 7.5h-16v-2.042c0-31.958-26-57.958-57.958-57.958-21.994 0-41.816 12.195-51.732 31.827l-52.281 103.5c-21.608 42.776-33.029 90.718-33.029 138.642v125.531c0 20.678 16.822 37.5 37.5 37.5h135c28.949 0 52.5-23.551 52.5-52.5v-150c0-20.678-16.822-37.5-37.5-37.5-8.436 0-16.228 2.801-22.5 7.52v-47.02c0-12.407 10.093-22.5 22.5-22.5h22.5v47.555c0 4.142 3.358 7.5 7.5 7.5s7.5-3.358 7.5-7.5v-48.745c11.04-1.884 21.533-5.992 31-12.19 9.467 6.197 19.96 10.306 31 12.19v250.69c0 28.949 23.551 52.5 52.5 52.5h135c20.678 0 37.5-16.822 37.5-37.5v-125.531c0-47.924-11.421-95.866-33.029-138.643zm-104.013-120.326c16.302 0 30.994 9.039 38.344 23.589l52.281 103.5c20.553 40.69 31.417 86.294 31.417 131.88v95.551c-6.272-4.719-14.064-7.52-22.5-7.52h-135c-20.678 0-37.5-16.822-37.5-37.5v-189.5h22.5c12.407 0 22.5 10.093 22.5 22.5v167c0 6.121 2.541 12.056 6.971 16.282 4.228 4.033 9.7 6.219 15.51 6.219.365 0 .73-.009 1.097-.026 12.012-.566 21.422-10.624 21.422-22.898v-82.792c8.73 3.095 15 11.437 15 21.215v32c0 12.407 10.093 22.5 22.5 22.5s22.5-10.093 22.5-22.5v-32c0-34.685-26.297-63.343-60-67.086v-37.914c0-34.684-26.298-63.329-60-67.073v-32.469c0-23.687 19.271-42.958 42.958-42.958zm9.542 195c28.949 0 52.5 23.551 52.5 52.5v32c0 4.136-3.364 7.5-7.5 7.5s-7.5-3.364-7.5-7.5v-32c0-20.678-16.822-37.5-37.5-37.5-4.142 0-7.5 3.358-7.5 7.5v91.577c0 4.179-3.197 7.729-7.128 7.915-2.072.1-4.05-.634-5.547-2.063-1.499-1.43-2.325-3.358-2.325-5.428v-167c0-18.11-12.904-33.261-30-36.745v-15.21c25.407 3.651 45 25.554 45 51.956v45c0 4.14 3.358 7.498 7.5 7.498zm-106-165h-45v-15h45zm0-30h-45v-15h45zm0-30h-45v-15h45zm0-45v15h-45v-15zm-232.083 202.089 52.281-103.5c7.35-14.55 22.042-23.589 38.344-23.589 23.687 0 42.958 19.271 42.958 42.958v32.469c-33.702 3.744-60 32.39-60 67.073v37.914c-33.703 3.743-60 32.401-60 67.086v2.02c-6.272-4.719-14.064-7.52-22.5-7.52-8.362 0-16.092 2.753-22.335 7.397 1.409-42.375 12.138-84.466 31.252-122.308zm163.583 242.411c0 20.678-16.822 37.5-37.5 37.5h-135c-12.407 0-22.5-10.093-22.5-22.5s10.093-22.5 22.5-22.5h135c14.679 0 27.963-6.063 37.5-15.808zm-22.5-172.5c12.407 0 22.5 10.093 22.5 22.5v90c0 20.678-16.822 37.5-37.5 37.5h-135c-8.436 0-16.228 2.801-22.5 7.52v-75.02c0-12.407 10.093-22.5 22.5-22.5s22.5 10.093 22.5 22.5 10.093 22.5 22.5 22.5 22.5-10.093 22.5-22.5v-32c0-9.778 6.27-18.12 15-21.215v82.792c0 12.274 9.41 22.333 21.422 22.898 6.219.286 12.114-1.906 16.607-6.193 4.43-4.226 6.971-10.161 6.971-16.282v-90c0-12.407 10.093-22.5 22.5-22.5zm-37.5-54.5v167c0 2.07-.826 3.998-2.325 5.428-1.497 1.428-3.466 2.161-5.548 2.063-3.93-.185-7.127-3.735-7.127-7.915v-91.576c0-4.142-3.358-7.5-7.5-7.5-20.678 0-37.5 16.822-37.5 37.5v32c0 4.136-3.364 7.5-7.5 7.5s-7.5-3.364-7.5-7.5v-32c0-28.949 23.551-52.5 52.5-52.5 4.142 0 7.5-3.358 7.5-7.5v-45c0-26.402 19.593-48.304 45-51.956v15.21c-17.096 3.485-30 18.636-30 36.746zm101.491-51.034c-11.768 8.854-25.77 13.534-40.491 13.534h-16v-45h16c9.778 0 18.114-6.271 21.21-15h47.58c3.096 8.729 11.432 15 21.21 15h16v45h-16c-14.721 0-28.723-4.68-40.491-13.534-2.671-2.009-6.347-2.009-9.018 0zm223.009 315.534h-135c-20.678 0-37.5-16.822-37.5-37.5v-23.308c9.537 9.745 22.821 15.808 37.5 15.808h135c12.407 0 22.5 10.093 22.5 22.5s-10.093 22.5-22.5 22.5z"/></g></svg>