<svg id="Capa_1" enable-background="new 0 0 512 512" height="512" viewBox="0 0 512 512" width="512" xmlns="http://www.w3.org/2000/svg"><g><path d="m474.5 0c-20.678 0-37.5 16.822-37.5 37.5v144.359c-39.958-1.473-60.771-14.711-82.722-28.686-24.074-15.325-48.968-31.173-98.278-31.173s-74.204 15.848-98.278 31.173c-21.951 13.975-42.764 27.213-82.722 28.686v-144.359c0-20.678-16.822-37.5-37.5-37.5s-37.5 16.822-37.5 37.5v218.5c0 34.728 26.364 63.414 60.127 67.1 3.747 104.802 90.173 188.9 195.873 188.9s192.126-84.098 195.873-188.9c33.763-3.686 60.127-32.372 60.127-67.1v-218.5c0-20.678-16.822-37.5-37.5-37.5zm-414.5 307.966c-25.409-3.65-45-25.563-45-51.966v-218.5c0-12.406 10.093-22.5 22.5-22.5s22.5 10.094 22.5 22.5zm196 189.034c-99.804 0-181-81.196-181-181v-119.137c44.387-1.524 67.958-16.51 90.778-31.036 23.286-14.825 45.282-28.827 90.222-28.827s66.936 14.002 90.222 28.827c22.819 14.526 46.39 29.512 90.778 31.036v119.137c0 99.804-81.196 181-181 181zm241-241c0 26.402-19.591 48.315-45 51.966v-270.466c0-12.406 10.093-22.5 22.5-22.5s22.5 10.094 22.5 22.5z"/><path d="m256 257c-45.491 0-82.5 37.01-82.5 82.5s37.009 82.5 82.5 82.5 82.5-37.01 82.5-82.5-37.009-82.5-82.5-82.5zm0 150c-37.22 0-67.5-30.28-67.5-67.5s30.28-67.5 67.5-67.5 67.5 30.28 67.5 67.5-30.28 67.5-67.5 67.5z"/><path d="m218.877 302.377c-2.929 2.929-2.929 7.678 0 10.606l26.516 26.517-20.669 20.669c-4.4-6.669-6.608-14.644-6.159-22.753.228-4.135-2.94-7.674-7.075-7.902-4.136-.229-7.674 2.939-7.903 7.075-.823 14.902 4.75 29.494 15.29 40.034 20.47 20.47 53.777 20.469 74.246 0s20.47-53.776 0-74.246-53.777-20.47-74.246 0zm16.443 5.836c12.488-8.259 28.866-8.252 41.354.007l-20.674 20.673zm.006 62.568 20.674-20.675 20.68 20.681c-12.488 8.259-28.865 8.252-41.354-.006zm51.961-10.601-20.68-20.68 20.674-20.674c8.258 12.489 8.265 28.866.006 41.354z"/></g></svg>