<svg id="Capa_1" enable-background="new 0 0 512 512" height="512" viewBox="0 0 512 512" width="512" xmlns="http://www.w3.org/2000/svg"><g><path d="m127.5 272h257c4.143 0 7.5-3.357 7.5-7.5s-3.357-7.5-7.5-7.5h-257c-4.142 0-7.5 3.357-7.5 7.5s3.358 7.5 7.5 7.5z"/><path d="m384.5 362h-257c-4.142 0-7.5 3.357-7.5 7.5s3.358 7.5 7.5 7.5h257c4.143 0 7.5-3.357 7.5-7.5s-3.357-7.5-7.5-7.5z"/><path d="m474.5 0c-20.678 0-37.5 16.822-37.5 37.5v114.5h-362v-114.5c0-20.678-16.822-37.5-37.5-37.5s-37.5 16.822-37.5 37.5v437c0 20.678 16.822 37.5 37.5 37.5 18.11 0 33.261-12.904 36.745-30h363.509c3.484 17.096 18.635 30 36.745 30 20.678 0 37.5-16.822 37.5-37.5v-437c.001-20.678-16.821-37.5-37.499-37.5zm-37.5 467h-15v-300h15zm-30 0h-302v-300h302zm-317-300v300h-15v-300zm-52.5 330c-12.407 0-22.5-10.094-22.5-22.5v-437c0-12.406 10.093-22.5 22.5-22.5s22.5 10.094 22.5 22.5v437c0 12.406-10.093 22.5-22.5 22.5zm459.5-22.5c0 12.406-10.094 22.5-22.5 22.5s-22.5-10.094-22.5-22.5v-437c0-12.406 10.094-22.5 22.5-22.5s22.5 10.094 22.5 22.5z"/></g></svg>