<svg id="Capa_1" enable-background="new 0 0 512 512" height="512" viewBox="0 0 512 512" width="512" xmlns="http://www.w3.org/2000/svg"><g><path d="m124.25.626c-68.512 0-124.25 55.738-124.25 124.25v182.521c0 39.35 9.703 78.378 28.061 112.864 17.756 33.356 43.556 62.513 74.61 84.317 6.454 4.53 14.017 6.796 21.579 6.796s15.126-2.266 21.579-6.797c31.055-21.804 56.854-50.96 74.61-84.316 18.357-34.486 28.061-73.515 28.061-112.864 0-4.143-3.357-7.5-7.5-7.5s-7.5 3.357-7.5 7.5c0 73.448-35.996 142.571-96.29 184.904-7.751 5.443-18.169 5.442-25.92.001-60.294-42.334-96.29-111.457-96.29-184.906v-182.52c0-60.24 49.01-109.25 109.25-109.25s109.25 49.01 109.25 109.25v152.521c0 4.143 3.357 7.5 7.5 7.5s7.5-3.357 7.5-7.5v-152.521c0-68.512-55.738-124.25-124.25-124.25z"/><path d="m198.371 134.927c-1.573-3.142-2.371-6.522-2.371-10.051s.798-6.91 2.371-10.052c1.535-3.065.796-6.782-1.795-9.027-2.657-2.301-4.688-5.12-6.037-8.379-1.351-3.259-1.907-6.689-1.657-10.194.245-3.419-1.86-6.569-5.113-7.651-3.334-1.109-6.289-2.937-8.783-5.432-2.495-2.494-4.322-5.449-5.432-8.783-1.081-3.254-4.244-5.383-7.651-5.113-3.505.25-6.936-.307-10.195-1.657s-6.077-3.38-8.378-6.036c-2.245-2.591-5.962-3.331-9.027-1.796-3.142 1.573-6.524 2.371-10.052 2.371s-6.91-.798-10.052-2.371c-3.066-1.535-6.782-.795-9.027 1.796-2.301 2.656-5.119 4.687-8.379 6.036s-6.691 1.9-10.194 1.657c-3.425-.271-6.57 1.86-7.651 5.113-1.109 3.334-2.937 6.289-5.432 8.783-2.494 2.495-5.449 4.322-8.783 5.432-3.253 1.082-5.358 4.232-5.113 7.651.251 3.507-.307 6.937-1.657 10.194-1.349 3.259-3.38 6.078-6.037 8.379-2.591 2.245-3.33 5.962-1.795 9.027 1.573 3.142 2.371 6.523 2.371 10.052s-.798 6.909-2.371 10.051c-1.059 2.113-1.059 4.603 0 6.717 1.573 3.142 2.371 6.524 2.371 10.052s-.798 6.909-2.371 10.051c-1.059 2.113-1.059 4.604 0 6.717 1.573 3.142 2.371 6.523 2.371 10.052 0 3.527-.798 6.909-2.371 10.051-1.535 3.065-.796 6.782 1.795 9.027 2.657 2.301 4.688 5.12 6.038 8.379s1.907 6.688 1.656 10.195c-.245 3.419 1.86 6.569 5.113 7.651 3.334 1.109 6.289 2.937 8.783 5.432 2.495 2.494 4.322 5.449 5.432 8.783 1.081 3.254 4.245 5.363 7.651 5.113 3.505-.251 6.937.307 10.193 1.655 3.26 1.351 6.079 3.382 8.38 6.038 2.245 2.591 5.961 3.329 9.027 1.796 3.142-1.573 6.524-2.371 10.052-2.371s6.91.798 10.052 2.371c1.069.535 2.218.794 3.355.794 2.124 0 4.21-.902 5.672-2.59 2.301-2.656 5.12-4.688 8.379-6.037s6.69-1.907 10.194-1.656c3.426.249 6.57-1.86 7.651-5.113 1.109-3.334 2.937-6.289 5.432-8.783 2.494-2.495 5.449-4.322 8.783-5.432 3.253-1.082 5.358-4.232 5.113-7.651-.25-3.505.307-6.936 1.657-10.195 1.349-3.259 3.38-6.078 6.037-8.379 2.591-2.245 3.33-5.962 1.795-9.027-1.573-3.142-2.371-6.523-2.371-10.051s.798-6.91 2.371-10.052c1.059-2.113 1.059-4.604 0-6.717-1.573-3.142-2.371-6.522-2.371-10.051 0-3.527.798-6.91 2.371-10.052 1.059-2.115 1.059-4.604 0-6.717zm-14.896 30.177c-1.644 4.269-2.475 8.765-2.475 13.41 0 4.014.62 7.915 1.85 11.656-2.567 2.985-4.634 6.354-6.17 10.062-1.535 3.708-2.455 7.55-2.751 11.476-3.515 1.776-6.712 4.097-9.551 6.935-2.838 2.839-5.158 6.036-6.935 9.55-3.926.297-7.769 1.217-11.476 2.752-3.709 1.536-7.076 3.603-10.062 6.17-3.741-1.229-7.643-1.85-11.656-1.85s-7.915.62-11.656 1.85c-2.985-2.567-6.354-4.634-10.062-6.171-3.707-1.535-7.549-2.455-11.476-2.751-1.776-3.514-4.097-6.712-6.935-9.55-2.839-2.838-6.036-5.158-9.55-6.935-.297-3.927-1.217-7.77-2.752-11.477-1.536-3.707-3.603-7.075-6.17-10.061 1.229-3.741 1.85-7.643 1.85-11.656 0-4.646-.831-9.142-2.475-13.41 1.644-4.269 2.475-8.765 2.475-13.409s-.831-9.141-2.475-13.41c1.644-4.269 2.475-8.765 2.475-13.409 0-4.014-.62-7.916-1.85-11.657 2.567-2.985 4.634-6.354 6.169-10.06 1.536-3.707 2.456-7.55 2.753-11.477 3.514-1.776 6.711-4.097 9.55-6.935 2.838-2.839 5.158-6.036 6.935-9.551 3.926-.296 7.768-1.216 11.475-2.751 3.709-1.536 7.076-3.603 10.063-6.17 3.741 1.229 7.643 1.85 11.656 1.85s7.915-.62 11.656-1.85c2.986 2.567 6.354 4.634 10.062 6.17 3.708 1.535 7.55 2.455 11.476 2.751 1.776 3.515 4.097 6.712 6.935 9.551 2.839 2.838 6.036 5.158 9.551 6.935.296 3.926 1.216 7.768 2.751 11.476 1.536 3.707 3.603 7.075 6.17 10.061-1.229 3.741-1.85 7.644-1.85 11.657 0 4.645.831 9.141 2.475 13.409-1.644 4.27-2.475 8.766-2.475 13.41s.831 9.141 2.475 13.409z"/><path d="m387.75.626c-68.512 0-124.25 55.738-124.25 124.25v182.521c0 39.35 9.703 78.378 28.061 112.864 17.756 33.356 43.556 62.513 74.61 84.317 6.454 4.53 14.017 6.796 21.579 6.796s15.126-2.266 21.579-6.797c31.055-21.804 56.854-50.96 74.61-84.316 18.358-34.487 28.061-73.515 28.061-112.865v-182.52c0-68.512-55.738-124.25-124.25-124.25zm109.25 306.77c0 73.448-35.996 142.571-96.29 184.904-7.751 5.443-18.169 5.442-25.92.001-60.294-42.334-96.29-111.457-96.29-184.905v-182.52c0-60.24 49.01-109.25 109.25-109.25s109.25 49.01 109.25 109.25z"/><path d="m461.871 134.927c-1.573-3.142-2.371-6.522-2.371-10.051s.798-6.91 2.371-10.052c1.535-3.065.796-6.782-1.795-9.027-2.657-2.301-4.688-5.12-6.037-8.379-1.351-3.259-1.907-6.689-1.657-10.194.245-3.419-1.86-6.569-5.113-7.651-3.334-1.109-6.289-2.937-8.783-5.432-2.495-2.494-4.322-5.449-5.432-8.783-1.082-3.254-4.248-5.383-7.651-5.113-3.505.25-6.936-.307-10.195-1.657s-6.077-3.38-8.378-6.036c-2.245-2.591-5.962-3.331-9.027-1.796-3.142 1.573-6.524 2.371-10.052 2.371s-6.91-.798-10.052-2.371c-3.065-1.535-6.783-.795-9.027 1.796-2.301 2.656-5.119 4.687-8.379 6.036s-6.691 1.9-10.194 1.657c-3.42-.271-6.569 1.86-7.651 5.113-1.109 3.334-2.937 6.289-5.432 8.783-2.494 2.495-5.449 4.322-8.783 5.432-3.253 1.082-5.358 4.232-5.113 7.651.251 3.507-.307 6.937-1.657 10.194-1.349 3.259-3.38 6.078-6.037 8.379-2.591 2.245-3.33 5.962-1.795 9.027 1.573 3.142 2.371 6.523 2.371 10.052s-.798 6.909-2.371 10.051c-1.059 2.113-1.059 4.603 0 6.717 1.573 3.142 2.371 6.524 2.371 10.052s-.798 6.909-2.371 10.051c-1.059 2.113-1.059 4.604 0 6.717 1.573 3.142 2.371 6.523 2.371 10.052 0 3.527-.798 6.909-2.371 10.051-1.535 3.065-.796 6.782 1.795 9.027 2.657 2.301 4.688 5.12 6.038 8.379s1.907 6.688 1.656 10.195c-.245 3.419 1.86 6.569 5.113 7.651 3.334 1.109 6.289 2.937 8.783 5.432 2.495 2.494 4.322 5.449 5.432 8.783 1.082 3.254 4.25 5.363 7.651 5.113 3.508-.251 6.937.307 10.193 1.655 3.26 1.351 6.079 3.382 8.38 6.038 2.244 2.591 5.962 3.329 9.027 1.796 3.142-1.573 6.524-2.371 10.052-2.371s6.91.798 10.052 2.371c1.069.535 2.218.794 3.355.794 2.124 0 4.21-.902 5.672-2.59 2.301-2.656 5.12-4.688 8.379-6.037s6.689-1.907 10.194-1.656c3.421.249 6.569-1.86 7.651-5.113 1.109-3.334 2.937-6.289 5.432-8.783 2.494-2.495 5.449-4.322 8.783-5.432 3.253-1.082 5.358-4.232 5.113-7.651-.25-3.505.307-6.936 1.657-10.195 1.349-3.259 3.38-6.078 6.037-8.379 2.591-2.245 3.33-5.962 1.795-9.027-1.573-3.142-2.371-6.523-2.371-10.051s.798-6.91 2.371-10.052c1.059-2.113 1.059-4.604 0-6.717-1.573-3.142-2.371-6.522-2.371-10.051 0-3.527.798-6.91 2.371-10.052 1.059-2.115 1.059-4.604 0-6.717zm-14.896 30.177c-1.644 4.269-2.475 8.765-2.475 13.41 0 4.014.62 7.915 1.85 11.656-2.567 2.985-4.634 6.354-6.17 10.062-1.535 3.708-2.455 7.55-2.751 11.476-3.515 1.776-6.712 4.097-9.551 6.935-2.838 2.839-5.158 6.036-6.935 9.55-3.926.297-7.769 1.217-11.476 2.752-3.709 1.536-7.076 3.603-10.062 6.17-3.741-1.229-7.643-1.85-11.656-1.85s-7.915.62-11.656 1.85c-2.985-2.567-6.354-4.634-10.062-6.171-3.707-1.535-7.549-2.455-11.476-2.751-1.776-3.514-4.097-6.712-6.935-9.55-2.839-2.838-6.036-5.158-9.55-6.935-.297-3.927-1.217-7.77-2.752-11.477-1.536-3.707-3.603-7.075-6.17-10.061 1.229-3.741 1.85-7.643 1.85-11.656 0-4.646-.831-9.142-2.475-13.41 1.644-4.269 2.475-8.765 2.475-13.409s-.831-9.141-2.475-13.41c1.644-4.269 2.475-8.765 2.475-13.409 0-4.014-.62-7.916-1.85-11.657 2.567-2.985 4.634-6.354 6.169-10.06 1.536-3.707 2.456-7.55 2.753-11.477 3.514-1.776 6.711-4.097 9.55-6.935 2.838-2.839 5.158-6.036 6.935-9.551 3.926-.296 7.768-1.216 11.475-2.751 3.709-1.536 7.076-3.603 10.063-6.17 3.741 1.229 7.643 1.85 11.656 1.85s7.915-.62 11.656-1.85c2.986 2.567 6.354 4.634 10.062 6.17 3.708 1.535 7.55 2.455 11.476 2.751 1.776 3.515 4.097 6.712 6.935 9.551 2.839 2.838 6.036 5.158 9.551 6.935.296 3.926 1.216 7.768 2.751 11.476 1.536 3.707 3.603 7.075 6.17 10.061-1.229 3.741-1.85 7.644-1.85 11.657 0 4.645.831 9.141 2.475 13.409-1.644 4.27-2.475 8.766-2.475 13.41s.831 9.141 2.475 13.409z"/></g></svg>