<svg id="Capa_1" enable-background="new 0 0 512 512" height="512" viewBox="0 0 512 512" width="512" xmlns="http://www.w3.org/2000/svg"><g><path d="m128.5 247.5v167c0 4.143 3.358 7.5 7.5 7.5s7.5-3.357 7.5-7.5v-159.5h225v212h-225v-22.5c0-4.143-3.358-7.5-7.5-7.5s-7.5 3.357-7.5 7.5v30c0 4.143 3.358 7.5 7.5 7.5h240c4.142 0 7.5-3.357 7.5-7.5v-227c0-4.143-3.358-7.5-7.5-7.5h-240c-4.142 0-7.5 3.357-7.5 7.5z"/><path d="m323.5 105.286v-67.786c0-20.678-16.822-37.5-37.5-37.5h-60c-20.678 0-37.5 16.822-37.5 37.5v67.786c-50.271 3.842-90 45.976-90 97.214v272c0 20.678 16.822 37.5 37.5 37.5h240c20.678 0 37.5-16.822 37.5-37.5v-272c0-51.239-39.729-93.372-90-97.214zm-120-.286v-60h15.755c3.484 17.096 18.635 30 36.745 30s33.261-12.904 36.745-30h15.755v60zm31.29-60h42.42c-3.096 8.729-11.432 15-21.21 15s-18.114-6.271-21.21-15zm-8.79-30h60c9.777 0 18.114 6.271 21.21 15h-102.42c3.096-8.729 11.433-15 21.21-15zm172.5 459.5c0 12.406-10.093 22.5-22.5 22.5h-240c-12.407 0-22.5-10.094-22.5-22.5v-272c0-45.49 37.009-82.5 82.5-82.5h120c45.491 0 82.5 37.01 82.5 82.5z"/></g></svg>