<svg id="Capa_1" enable-background="new 0 0 512 512" height="512" viewBox="0 0 512 512" width="512" xmlns="http://www.w3.org/2000/svg"><g><path d="m316 150.286v-82.786c0-4.143-3.357-7.5-7.5-7.5h-22.5v-15h90c4.143 0 7.5-3.357 7.5-7.5 0-20.678-16.822-37.5-37.5-37.5h-135c-6.121 0-12.056 2.541-16.282 6.971-4.286 4.493-6.486 10.391-6.193 16.606.566 12.013 10.624 21.423 22.899 21.423h14.576v15h-22.5c-4.142 0-7.5 3.357-7.5 7.5v82.786c-50.271 3.842-90 45.976-90 97.214v227c0 20.678 16.822 37.5 37.5 37.5h225c20.678 0 37.5-16.822 37.5-37.5v-227c0-51.239-39.729-93.372-90-97.214zm-112.491-127.414c-.098-2.08.635-4.051 2.063-5.548 1.429-1.499 3.358-2.324 5.428-2.324h135c9.778 0 18.119 6.27 21.215 15h-155.791c-4.179 0-7.73-3.197-7.915-7.128zm37.491 22.128h30v15h-30zm60 30v75h-90v-75zm-60 195c-4.142 0-7.5 3.357-7.5 7.5v167c0 4.143 3.358 7.5 7.5 7.5h30c4.143 0 7.5-3.357 7.5-7.5v-189.5h82.5v212h-210v-212h112.5v182h-15v-159.5c0-4.143-3.358-7.5-7.5-7.5zm7.5-30v-75h15v75zm142.5 234.5c0 12.406-10.094 22.5-22.5 22.5h-225c-12.407 0-22.5-10.094-22.5-22.5v-227c0-45.49 37.009-82.5 82.5-82.5h30v75h-90c-4.142 0-7.5 3.357-7.5 7.5v227c0 4.143 3.358 7.5 7.5 7.5h225c4.143 0 7.5-3.357 7.5-7.5v-227c0-4.143-3.357-7.5-7.5-7.5h-90v-75h30c45.49 0 82.5 37.01 82.5 82.5z"/></g></svg>