<svg id="Capa_1" enable-background="new 0 0 512 512" height="512" viewBox="0 0 512 512" width="512" xmlns="http://www.w3.org/2000/svg"><g><path d="m485.682 26.318c-35.091-35.091-92.188-35.091-127.279 0l-165.817 165.817c-19.348 19.348-33.381 43.529-40.581 69.929l-17.146 62.869c-2.4 8.8-7.077 16.859-13.527 23.309l-112.559 112.559c-11.697 11.697-11.697 30.729 0 42.426s30.729 11.697 42.426 0l112.559-112.559c6.45-6.45 14.51-11.128 23.309-13.527l62.869-17.146c26.399-7.2 50.58-21.233 69.929-40.581l165.817-165.817c35.091-35.091 35.091-92.188 0-127.279zm-445.089 466.303c-5.849 5.849-15.364 5.849-21.213 0s-5.849-15.365 0-21.213l37.123-37.123 21.213 21.213zm268.666-183.814c-17.506 17.506-39.384 30.202-63.268 36.716l-62.869 17.146c-11.314 3.085-21.677 9.099-29.97 17.392l-64.829 64.829-21.213-21.213 64.829-64.829c8.293-8.293 14.307-18.656 17.392-29.97l17.146-62.869c6.514-23.885 19.21-45.763 36.716-63.269l160.513-160.512 106.066 106.066zm170.854-171.386-105.534-105.534c29.431-24.092 73.044-22.415 100.496 5.038 27.453 27.453 29.13 71.065 5.038 100.496z"/><path d="m321.28 105.867-15.91 15.91c-2.929 2.929-2.929 7.677 0 10.606s7.678 2.929 10.606 0l15.91-15.91c17.545-17.545 46.094-17.546 63.64 0s17.545 46.094 0 63.64l-107.48 107.481c-17.546 17.545-46.094 17.545-63.639 0-17.546-17.546-17.546-46.094 0-63.639l70.357-70.357c2.929-2.929 2.929-7.677 0-10.607-2.929-2.929-7.678-2.929-10.607 0l-70.358 70.357c-23.394 23.394-23.394 61.458 0 84.853 23.394 23.394 61.459 23.394 84.852 0l107.481-107.48c23.394-23.394 23.394-61.459 0-84.853-23.393-23.395-61.458-23.395-84.852-.001z"/><path d="m305.37 164.204-70.358 70.357c-2.929 2.929-2.929 7.677 0 10.607l31.82 31.82c2.929 2.929 7.678 2.929 10.607 0l70.357-70.358c2.929-2.929 2.929-7.677 0-10.606l-31.82-31.82c-2.929-2.93-7.677-2.929-10.606 0zm-33.234 96.874-21.213-21.213 59.751-59.751 21.213 21.213z"/><path d="m384.919 169.507c11.697-11.697 11.697-30.729 0-42.426s-30.729-11.697-42.426 0-11.697 30.729 0 42.426 30.729 11.697 42.426 0zm-31.819-31.82c5.849-5.848 15.364-5.849 21.213 0s5.848 15.365 0 21.213c-5.849 5.848-15.365 5.849-21.213 0-5.849-5.848-5.849-15.364 0-21.213z"/></g></svg>